<?xml version="1.0" standalone="no"?>
<!DOCTYPE svg PUBLIC "-//W3C//DTD SVG 20010904//EN"
 "http://www.w3.org/TR/2001/REC-SVG-20010904/DTD/svg10.dtd">
<svg version="1.0" xmlns="http://www.w3.org/2000/svg"
 width="836.741405pt" height="461.362162pt" viewBox="0 0 836.741405 461.362162"
 preserveAspectRatio="xMidYMid meet">
<metadata>
Created by potrace 1.12, written by Peter Selinger 2001-2015
</metadata>
<g transform="translate(-97.619552,858.000000) scale(0.100000,-0.100000)"
fill="#000000" stroke="none">
<path d="M6590 8565 c0 -8 7 -15 15 -15 8 0 15 7 15 15 0 8 -7 15 -15 15 -8 0
-15 -7 -15 -15z"/>
<path d="M8925 8090 c-10 -11 -15 -20 -11 -20 4 0 2 -9 -4 -20 -8 -15 -7 -26
5 -44 14 -21 15 -42 10 -133 -4 -59 -9 -111 -10 -114 -5 -8 -7 -86 -6 -394 1
-349 -7 -646 -19 -750 -5 -44 -14 -143 -20 -219 -10 -135 -11 -140 -45 -185
-18 -26 -37 -59 -40 -74 -7 -25 -150 -169 -271 -272 -70 -59 -197 -155 -205
-155 -5 0 -25 -11 -45 -25 -20 -14 -45 -25 -55 -25 -10 0 -20 -9 -24 -19 -3
-11 -12 -22 -21 -25 -14 -6 -44 20 -45 39 0 6 -6 20 -14 32 -17 26 -45 204
-45 287 0 34 6 73 14 87 25 49 28 94 7 113 -20 18 -62 23 -98 11 -19 -6 -21
-13 -17 -52 4 -51 -15 -104 -51 -141 -14 -14 -25 -32 -25 -41 0 -9 -15 -22
-32 -30 -18 -8 -36 -19 -40 -24 -3 -6 -14 -12 -22 -13 -12 -2 -16 6 -16 27 0
29 2 35 34 99 27 53 33 143 11 183 -20 38 -60 60 -84 48 -32 -18 -63 -62 -52
-75 7 -8 6 -25 -4 -53 -8 -23 -16 -81 -19 -130 -2 -48 -5 -93 -5 -99 -1 -6
-26 -28 -56 -49 -55 -38 -56 -38 -74 -18 -23 25 -44 62 -48 87 -2 11 -8 25
-14 32 -7 8 -7 18 0 31 5 10 18 45 27 78 14 47 30 73 74 120 86 90 122 134
165 200 21 33 52 79 68 103 16 24 30 48 31 55 2 7 10 29 20 49 9 21 16 47 16
58 0 12 6 33 14 48 20 40 41 328 25 338 -4 2 -10 29 -14 60 -7 56 -73 198
-103 220 -8 6 -16 32 -18 64 -3 30 -7 56 -9 58 -3 3 -33 5 -67 6 l-63 1 1 -49
c0 -35 6 -53 19 -62 16 -12 18 -25 12 -132 -4 -66 -11 -141 -16 -168 -23 -115
-33 -171 -37 -204 -5 -47 -24 -131 -35 -152 -5 -10 -9 -30 -9 -44 0 -29 -12
-81 -37 -156 -8 -26 -12 -52 -8 -57 3 -6 -1 -21 -9 -33 -8 -13 -18 -45 -21
-73 -18 -121 -41 -156 -158 -236 -93 -64 -125 -79 -167 -79 -55 0 -76 25 -71
83 2 10 -5 17 -14 17 -9 0 -13 5 -10 10 4 6 11 8 16 5 5 -4 4 5 -2 19 -6 13
-24 30 -39 36 -32 13 -80 4 -80 -16 0 -8 -4 -14 -9 -14 -5 0 -13 -10 -17 -22
-5 -16 -1 -26 14 -39 22 -17 23 -59 3 -98 -14 -25 -69 -71 -86 -71 -7 0 -37
20 -68 45 l-54 45 1 58 c1 31 7 67 14 78 10 18 7 27 -16 57 -31 42 -57 46 -84
15 -22 -26 -26 -42 -32 -135 -4 -60 -9 -79 -36 -117 -45 -67 -65 -62 -76 16
-5 41 -3 46 40 93 49 52 56 82 34 130 -14 30 -19 31 -36 4 -11 -16 -16 -18
-28 -8 -24 20 -63 -28 -69 -85 -2 -25 -10 -56 -16 -69 -12 -23 -109 -117 -121
-117 -3 0 -19 -11 -35 -23 -39 -33 -98 -41 -145 -19 l-38 17 27 34 c22 28 31
32 57 28 40 -6 76 21 76 57 0 14 -4 26 -9 26 -21 0 -42 32 -35 54 4 11 10 23
13 26 29 22 51 303 45 580 -4 199 -7 244 -29 389 -8 52 -13 97 -13 100 1 3 -2
13 -5 21 -15 34 -67 203 -67 215 0 8 -8 21 -17 31 -9 9 -29 41 -44 71 -16 33
-42 65 -63 79 -34 24 -66 31 -66 17 -1 -5 -5 -28 -9 -52 -8 -37 -6 -49 11 -71
19 -26 33 -123 33 -230 -1 -42 -13 -285 -15 -285 -1 0 -12 -176 -12 -200 0
-27 -25 -258 -40 -370 -6 -49 -12 -130 -12 -180 -1 -55 -5 -93 -12 -97 -7 -4
-15 -41 -19 -83 l-7 -75 -32 0 c-18 0 -54 -3 -79 -6 l-46 -7 14 39 c26 73 16
135 -34 197 -14 17 -66 23 -87 9 -10 -6 -27 -134 -25 -192 2 -67 7 -65 -159
-63 -83 1 -155 5 -160 8 -5 3 -5 18 1 37 6 21 5 36 -2 45 -6 7 -9 22 -6 34 5
18 -7 53 -23 69 -3 3 -12 19 -20 35 -22 43 -62 60 -97 43 -25 -12 -28 -19 -28
-63 0 -28 -4 -85 -9 -128 -8 -76 -9 -78 -34 -75 -24 3 -48 33 -80 103 -16 33
-55 48 -106 41 -53 -8 -66 -25 -59 -76 4 -24 1 -40 -7 -45 -13 -8 -106 -7
-165 1 -16 2 -81 6 -143 9 -62 2 -117 7 -122 10 -15 9 -7 55 9 55 22 0 9 8
-22 14 -14 2 -31 7 -36 11 -25 15 -57 -7 -72 -48 -14 -42 -14 -42 -59 -39 -25
2 -48 7 -53 11 -7 7 -39 107 -58 186 -6 22 -13 65 -16 95 -3 30 -12 65 -20 77
-8 12 -13 28 -10 35 2 7 0 22 -6 33 -11 20 -33 137 -44 225 -3 25 -9 49 -14
54 -5 6 -9 28 -9 51 0 22 -5 56 -10 75 -6 19 -12 46 -14 60 -2 14 -9 43 -15
66 -6 22 -17 71 -25 109 -20 97 -46 188 -57 199 -5 6 -9 20 -9 32 0 13 -4 25
-9 28 -5 3 -11 20 -14 38 -14 82 -54 216 -74 244 -12 17 -25 53 -28 80 -8 53
-18 72 -53 92 -61 34 -98 -3 -105 -108 -2 -41 -10 -76 -16 -78 -6 -2 -11 -16
-11 -30 0 -15 -9 -42 -20 -60 -11 -18 -20 -40 -20 -50 0 -9 -9 -30 -20 -47
-11 -16 -20 -40 -20 -52 0 -13 -3 -23 -8 -23 -8 0 -32 -53 -52 -115 -27 -84
-73 -202 -95 -245 -27 -55 -93 -233 -101 -277 -4 -18 -13 -38 -20 -44 -8 -6
-11 -16 -8 -21 3 -5 -1 -28 -9 -51 -17 -47 -40 -128 -57 -202 -12 -50 -21 -82
-36 -120 -4 -11 -6 -24 -5 -29 1 -5 -4 -30 -12 -55 -8 -25 -20 -73 -27 -106
-7 -33 -16 -73 -19 -90 l-7 -30 -135 -11 c-74 -6 -168 -16 -209 -22 -41 -6
-102 -14 -135 -17 -32 -4 -62 -8 -65 -10 -3 -1 -51 -6 -106 -9 -56 -3 -108 -8
-115 -11 -8 -2 -95 -16 -194 -31 -99 -14 -189 -27 -200 -29 -167 -27 -222 -38
-285 -55 -100 -27 -353 -38 -439 -20 -33 7 -76 9 -95 6 -30 -6 -37 -12 -45
-42 -7 -25 -6 -43 1 -60 10 -21 18 -24 63 -24 29 0 74 -7 101 -16 30 -9 102
-17 184 -20 74 -2 221 -12 325 -21 105 -9 208 -17 230 -18 22 -2 67 -8 100
-15 33 -7 85 -14 115 -15 50 -3 167 -20 295 -46 28 -5 82 -16 121 -23 39 -8
92 -23 117 -34 25 -11 60 -23 78 -27 44 -9 129 -55 129 -69 0 -27 -41 -150
-55 -166 -8 -9 -14 -28 -13 -41 1 -22 -13 -72 -62 -219 -24 -69 -28 -112 -14
-117 7 -2 24 37 44 99 17 57 45 139 62 183 16 44 38 112 49 150 11 39 22 78
25 88 7 24 33 21 76 -8 20 -14 45 -25 56 -25 10 0 29 -11 42 -25 13 -14 29
-25 36 -25 6 0 17 -7 24 -16 8 -8 27 -21 44 -28 17 -7 49 -31 71 -53 22 -22
48 -42 57 -46 26 -9 320 -242 343 -271 6 -7 46 -32 90 -56 44 -24 82 -46 85
-50 12 -14 61 -40 74 -40 8 0 21 -8 28 -18 7 -10 49 -47 93 -82 44 -34 90 -72
101 -84 12 -11 34 -33 50 -47 32 -28 176 -181 212 -224 12 -14 22 -33 22 -41
0 -8 7 -17 15 -20 8 -4 15 -12 15 -19 0 -16 22 -25 60 -25 22 0 33 8 50 35 21
35 20 44 -8 78 -9 10 -17 37 -19 60 -2 23 -8 65 -14 92 -6 28 -13 70 -15 95
-3 25 -9 63 -14 85 -6 22 -10 49 -10 60 1 46 -20 225 -35 290 -8 39 -26 131
-40 205 -33 183 -45 239 -61 277 -8 17 -14 39 -14 48 0 9 -7 31 -15 48 -8 18
-19 59 -24 92 -14 82 -26 133 -57 245 -14 52 -29 108 -32 124 -5 29 -4 29 34
23 22 -4 49 -7 60 -7 24 0 36 -35 35 -98 -1 -18 5 -43 13 -55 7 -12 19 -56 25
-97 7 -41 16 -84 21 -95 5 -11 14 -32 20 -48 7 -20 26 -35 76 -58 l67 -30 55
22 c66 27 139 76 193 130 21 21 42 39 47 39 4 0 14 13 23 29 21 36 52 44 81
21 78 -60 154 -69 211 -26 21 16 42 37 48 48 12 22 35 24 43 3 3 -8 16 -15 29
-15 14 0 30 -7 37 -15 15 -18 60 -19 132 -4 56 12 112 44 168 96 45 42 58 41
76 -2 8 -19 19 -35 24 -35 6 0 10 -6 10 -14 0 -21 69 -49 125 -50 57 -1 55 5
35 -106 -6 -36 -13 -99 -16 -140 -2 -41 -8 -104 -13 -140 -12 -80 -27 -218
-42 -370 -6 -63 -12 -129 -14 -145 -9 -80 -23 -232 -23 -245 1 -24 -12 -193
-17 -220 -3 -14 -7 -93 -10 -176 -5 -125 -4 -152 8 -157 11 -4 14 9 13 70 -1
53 3 77 12 80 9 4 10 9 2 18 -7 9 -8 40 -1 101 5 49 15 163 21 254 6 91 16
184 21 207 5 23 9 61 9 84 0 43 2 65 41 369 11 91 24 203 29 250 4 47 15 117
23 155 9 39 17 84 18 100 4 39 13 50 79 99 57 41 90 47 134 24 21 -11 101 -14
126 -5 38 13 48 19 94 52 26 19 52 33 56 30 5 -3 11 -1 15 5 11 18 21 11 44
-35 21 -43 25 -45 64 -45 24 0 56 8 74 20 32 19 73 84 73 115 0 23 8 19 57
-31 51 -51 78 -64 128 -64 19 0 37 -4 40 -10 7 -11 115 39 115 55 0 5 9 21 20
35 l19 25 40 -22 c37 -21 42 -22 81 -8 23 8 46 13 50 10 4 -3 19 4 33 15 14
11 37 20 51 20 24 0 26 -4 26 -39 0 -35 4 -40 31 -50 29 -10 30 -13 25 -53
-11 -87 -24 -132 -58 -205 -12 -26 -17 -50 -12 -67 4 -17 0 -35 -12 -53 -13
-20 -18 -51 -20 -111 -1 -56 -7 -89 -17 -100 -10 -12 -14 -41 -14 -100 -1 -45
-5 -88 -11 -95 -5 -6 -18 -43 -27 -81 -14 -54 -15 -73 -5 -90 9 -18 7 -39 -9
-108 -12 -47 -21 -99 -21 -114 0 -16 -7 -54 -15 -84 -8 -30 -11 -56 -7 -58 4
-1 5 -30 1 -65 -3 -34 -4 -83 -1 -108 4 -44 3 -47 -19 -47 -13 -1 -49 -4 -79
-7 -30 -4 -90 -8 -132 -10 -77 -2 -108 -14 -108 -41 0 -7 6 -17 13 -21 6 -4
17 -17 24 -28 6 -11 17 -18 25 -16 45 12 90 13 193 4 l80 -8 9 -73 c11 -93 32
-93 28 0 -3 54 0 67 14 72 9 3 22 2 29 -4 6 -5 29 -10 51 -10 21 0 50 0 64 0
14 -1 45 1 70 4 25 2 97 7 160 11 63 3 122 7 130 10 8 2 47 6 85 10 39 3 86 8
105 10 19 3 58 7 85 11 28 3 84 10 125 15 41 6 140 12 219 15 79 2 162 9 185
15 22 6 71 17 108 24 39 9 76 23 88 35 11 11 25 20 30 20 6 0 15 10 20 23 6
12 14 29 19 37 5 8 12 23 15 33 5 16 14 17 73 12 38 -4 88 -8 113 -10 95 -6
141 -18 151 -36 13 -25 46 -24 87 1 18 11 39 20 47 20 8 0 15 4 15 9 0 5 10
11 22 13 26 4 52 47 38 63 -6 7 -31 13 -56 13 -25 1 -51 5 -57 9 -16 10 -86 4
-106 -9 -13 -8 -41 -8 -99 -1 -44 6 -104 9 -134 7 -89 -6 -90 -6 -83 94 3 48
7 152 9 232 3 80 7 152 10 160 5 17 18 226 17 278 -1 18 3 41 8 50 5 9 12 66
15 126 4 60 9 112 11 115 2 4 5 45 6 91 1 47 6 92 10 100 11 23 -1 70 -18 70
-8 0 -13 6 -10 13 2 6 11 11 19 9 11 -2 17 24 27 125 19 205 27 258 43 289 28
54 68 141 68 148 0 4 16 40 35 81 19 41 37 87 41 102 4 15 15 47 25 70 11 24
26 70 35 103 8 34 22 76 30 95 8 19 13 38 12 42 -1 5 4 28 11 53 20 67 51 221
51 251 0 14 3 29 8 33 4 4 8 31 10 59 1 29 5 93 8 142 3 62 1 110 -10 153 -8
35 -13 69 -10 76 5 13 -32 122 -48 143 -5 7 -7 17 -4 22 4 6 -3 15 -14 21 -11
6 -20 15 -20 21 0 6 -6 16 -12 23 -7 8 -35 41 -63 75 -27 33 -55 61 -61 61 -6
0 -21 11 -34 25 -28 30 -61 32 -85 5z m152 -157 c10 -16 23 -31 30 -36 17 -11
71 -92 88 -134 8 -20 15 -51 15 -70 0 -20 8 -57 17 -82 10 -28 13 -55 9 -67
-4 -10 -8 -64 -8 -119 0 -55 -4 -104 -8 -110 -4 -5 -10 -28 -13 -50 -15 -119
-49 -264 -86 -370 -23 -66 -49 -145 -58 -175 -9 -30 -22 -62 -30 -71 -7 -8
-13 -23 -13 -32 0 -9 -7 -32 -15 -52 -8 -19 -22 -51 -30 -71 -9 -20 -18 -35
-20 -33 -2 2 3 74 11 159 8 89 16 323 19 550 5 462 13 754 21 775 10 25 52 18
71 -12z m-5398 -386 c13 -28 31 -70 41 -92 10 -22 32 -92 50 -155 18 -63 43
-150 56 -194 13 -43 24 -95 24 -116 0 -24 5 -40 15 -44 11 -4 15 -20 15 -56 0
-28 4 -59 10 -69 5 -10 14 -61 20 -112 6 -52 17 -114 25 -139 8 -25 24 -99 36
-165 12 -66 30 -146 40 -179 10 -32 24 -86 30 -120 6 -33 15 -71 20 -84 5 -13
9 -27 9 -32 0 -6 -55 -10 -132 -10 -135 -1 -423 -13 -623 -27 -60 -4 -141 -8
-180 -8 l-70 0 1 30 c2 50 20 133 31 147 6 7 17 48 23 91 7 42 17 77 21 77 5
0 9 10 9 22 0 13 9 45 19 73 29 74 32 84 53 155 11 36 20 75 21 88 1 12 5 22
8 22 4 0 9 14 13 31 3 17 16 45 28 62 13 18 21 40 20 49 -2 10 3 30 11 45 8
16 30 66 50 113 19 47 49 118 66 159 17 40 31 84 31 97 0 12 11 35 24 51 24
28 82 163 90 209 3 14 9 31 14 37 5 7 14 31 21 55 6 23 17 42 24 42 7 0 23
-24 36 -53z m2456 -234 c15 -38 33 -81 41 -98 21 -45 31 -108 52 -305 24 -234
-14 -711 -63 -787 -8 -12 -15 -30 -15 -40 -1 -52 -56 -73 -115 -45 -21 11 -45
18 -51 15 -8 -3 -11 5 -9 24 2 15 11 89 19 163 9 74 18 149 21 165 4 17 9 53
12 80 3 28 10 56 15 62 6 7 8 19 5 27 -6 14 1 95 19 251 15 126 23 286 24 458
0 53 4 97 9 97 5 0 21 -30 36 -67z m1641 -105 c8 -18 18 -40 23 -48 35 -60 61
-192 54 -275 -2 -22 -4 -65 -6 -96 -1 -31 -8 -63 -15 -71 -6 -8 -15 -30 -18
-49 -9 -42 -63 -168 -87 -200 -10 -13 -32 -45 -51 -71 -47 -67 -115 -142 -123
-134 -3 3 1 23 9 43 18 44 43 131 54 188 4 22 9 45 10 50 2 6 11 42 20 80 9
39 20 79 24 90 4 11 17 74 29 140 13 66 25 134 28 150 10 51 13 77 20 158 3
42 8 77 10 77 2 0 11 -15 19 -32z m-2558 -1175 c3 -54 -7 -93 -24 -93 -11 0
-14 16 -14 68 0 38 3 72 7 75 13 13 30 -14 31 -50z m3618 15 c-4 -13 -10 -65
-13 -115 -5 -86 -4 -93 13 -94 16 0 16 -2 -3 -9 -13 -5 -23 -17 -23 -27 0 -16
-13 -203 -25 -358 -6 -83 -23 -270 -35 -390 -6 -55 -12 -163 -15 -240 -3 -77
-8 -170 -11 -207 l-7 -68 -41 -1 c-22 -1 -44 -1 -48 0 -36 5 -338 -25 -433
-44 -66 -13 -149 -26 -185 -30 -64 -6 -198 -32 -315 -60 -71 -17 -106 -24
-160 -34 -23 -4 -46 -10 -53 -15 -9 -6 -257 -46 -286 -46 -5 0 -5 39 -1 88 4
48 9 112 11 142 2 30 11 96 19 145 9 50 18 106 21 125 2 19 9 67 15 105 6 39
12 81 13 95 1 14 5 32 9 40 3 8 8 33 11 55 10 78 26 171 40 240 9 39 20 95 26
125 25 130 52 258 63 293 l11 38 31 -35 c28 -31 38 -36 78 -36 44 0 97 16 97
29 0 4 16 15 35 25 19 11 35 23 35 28 0 5 10 2 22 -6 13 -9 43 -16 68 -16 44
0 49 3 113 71 55 58 67 67 66 47 -4 -61 31 -229 57 -281 47 -90 90 -113 186
-101 62 8 81 20 73 45 -4 11 -2 19 4 19 9 0 130 101 191 159 14 13 41 34 60
46 19 13 57 44 84 70 28 26 63 55 78 66 15 11 28 25 28 31 0 6 14 27 30 47 17
20 35 42 41 49 17 20 32 14 25 -10z m-3873 -89 c6 -1 -1 -5 -18 -8 -36 -9 -49
0 -40 27 6 21 6 21 26 1 10 -10 25 -20 32 -20z m-887 -53 c14 -14 47 -149 46
-187 0 -15 8 -35 19 -45 12 -11 19 -30 19 -53 1 -49 27 -168 50 -226 14 -33
51 -185 66 -269 8 -43 18 -84 21 -90 4 -6 6 -22 5 -36 -2 -24 9 -84 41 -210 7
-30 14 -100 16 -155 1 -55 7 -120 13 -145 18 -78 36 -255 27 -264 -6 -6 -9 -6
-9 0 0 5 -52 62 -115 127 -63 65 -115 115 -115 113 0 -3 -32 26 -72 64 -40 39
-76 70 -81 70 -7 0 -90 62 -107 80 -3 3 -27 20 -55 38 -27 18 -58 38 -68 45
-10 6 -22 12 -28 12 -5 0 -13 5 -17 10 -4 6 -18 16 -32 23 -56 28 -75 42 -109
79 -20 22 -54 52 -76 68 -22 16 -46 37 -53 47 -7 10 -19 18 -26 18 -7 0 -24
13 -37 28 -13 16 -38 37 -55 48 -18 10 -62 40 -100 67 -38 26 -74 47 -80 47
-7 0 -14 7 -18 15 -3 8 -12 15 -21 15 -8 0 -15 5 -15 10 0 6 -37 28 -82 51
-114 55 -116 57 -96 116 9 27 22 75 29 108 7 33 18 72 26 87 7 15 13 42 13 60
1 47 27 152 40 156 5 2 10 14 10 26 0 21 5 23 63 25 34 1 69 4 77 6 19 5 341
23 565 31 94 3 172 8 175 11 9 8 135 -9 146 -21z m661 1 c45 -1 84 -5 87 -8 4
-4 11 -33 16 -65 8 -47 7 -61 -5 -74 -8 -9 -15 -22 -15 -28 0 -7 -6 -12 -13
-12 -7 0 -47 -31 -87 -70 -40 -38 -77 -70 -82 -70 -5 0 -19 -9 -31 -21 -36
-34 -67 -42 -114 -28 -51 14 -56 19 -77 82 -16 46 -46 235 -46 285 l0 24 143
-7 c78 -4 179 -7 224 -8z m203 -16 c0 -17 -12 -41 -20 -41 -11 0 -21 30 -14
41 7 12 34 12 34 0z m917 3 c20 -6 22 -12 22 -65 -1 -81 -17 -94 -86 -71 -52
17 -74 43 -86 100 -6 24 4 29 78 35 22 2 42 4 45 5 3 1 15 -1 27 -4z m-739
-36 c2 -14 10 -32 18 -38 8 -7 14 -17 14 -22 0 -14 -41 -53 -81 -75 l-36 -21
-39 22 c-47 26 -58 68 -25 86 12 6 21 16 21 23 0 29 36 53 81 52 40 0 44 -2
47 -27z m-2131 8 c5 -3 -40 -216 -54 -256 -17 -48 -20 -64 -29 -123 -4 -20
-10 -40 -15 -43 -5 -3 -9 -14 -9 -24 0 -31 -43 -35 -118 -11 -37 13 -71 26
-77 30 -13 10 -74 26 -150 41 -33 7 -65 16 -70 21 -6 4 -69 15 -140 24 -71 9
-132 19 -135 23 -3 4 -25 8 -50 9 -25 1 -79 6 -120 11 -258 33 -438 52 -523
58 -114 7 -127 25 -26 36 35 4 105 16 154 28 50 11 119 25 155 31 36 5 87 14
113 19 27 6 64 10 83 10 20 0 44 5 54 10 10 6 45 12 77 15 32 3 87 10 123 15
36 5 124 14 195 20 72 6 153 14 180 19 28 6 91 15 140 22 50 7 97 16 105 20
11 6 127 2 137 -5z m2603 7 c-1 -13 -101 -97 -118 -99 -8 -2 -18 -7 -21 -12
-16 -25 -128 -29 -171 -7 -46 24 -52 38 -35 78 l15 36 92 3 c51 2 126 4 166 6
39 1 72 -1 72 -5z m380 -22 c0 -10 -11 -26 -25 -35 -24 -16 -24 -16 -16 6 5
13 12 31 15 41 7 22 26 13 26 -12z m2545 -1381 c17 2 37 2 45 1 8 0 43 -2 77
-3 46 -2 63 -6 66 -18 4 -21 -55 -78 -90 -85 -15 -4 -37 -10 -48 -15 -52 -21
-85 -28 -145 -29 -64 -2 -116 -7 -335 -36 -22 -2 -78 -7 -125 -10 -47 -3 -137
-12 -200 -20 -63 -8 -162 -17 -220 -19 -58 -2 -137 -7 -175 -11 -59 -6 -73 -5
-84 9 -7 9 -12 16 -10 17 2 1 47 9 99 19 52 10 147 30 210 45 63 15 124 27
135 28 11 0 22 4 25 7 3 4 39 12 80 18 91 14 102 16 115 24 25 16 108 31 188
34 49 3 96 8 105 13 10 4 55 11 101 15 46 4 91 11 100 16 9 6 25 7 36 4 11 -3
34 -5 50 -4z m-1281 -233 c-20 -12 -37 1 -22 17 9 9 16 10 24 2 9 -8 9 -13 -2
-19z"/>
</g>
</svg>
